<svg aria-hidden="true" style="position: absolute; width: 0; height: 0; overflow: hidden;" version="1.1" xmlns="http://www.w3.org/2000/svg" xmlns:xlink="http://www.w3.org/1999/xlink">
<defs>
<symbol id="icon-book" viewBox="0 0 32 32">
<path d="M2 5.656c1.77-0.74 4.308-1.538 6.776-1.786 2.66-0.268 4.916 0.126 6.224 1.504v19.492c-1.87-1.062-4.238-1.206-6.426-0.984-2.36 0.236-4.738 0.92-6.574 1.62v-19.846zM17 5.374c1.308-1.378 3.564-1.772 6.224-1.504 2.468 0.248 5.006 1.046 6.776 1.786v19.846c-1.834-0.7-4.214-1.382-6.574-1.622-2.186-0.22-4.556-0.074-6.426 0.986v-19.492zM16 3.566c-1.97-1.694-4.826-1.946-7.426-1.686-3.028 0.306-6.084 1.344-7.988 2.21-0.348 0.161-0.586 0.508-0.586 0.91v0 22c0 0.552 0.448 1 1 1 0.15 0 0.292-0.033 0.42-0.092l-0.006 0.003c1.764-0.8 4.606-1.762 7.36-2.040 2.818-0.284 5.18 0.174 6.446 1.754 0.185 0.229 0.465 0.374 0.78 0.374s0.595-0.145 0.778-0.372l0.002-0.002c1.266-1.58 3.628-2.038 6.444-1.754 2.756 0.278 5.6 1.24 7.362 2.040 0.122 0.057 0.264 0.090 0.414 0.090 0.552 0 1-0.448 1-1v-22c-0-0.402-0.238-0.749-0.58-0.907l-0.006-0.003c-1.904-0.866-4.96-1.904-7.988-2.21-2.6-0.262-5.456-0.008-7.426 1.686z"></path>
</symbol>
<symbol id="icon-book-fill" viewBox="0 0 32 32">
<path d="M16 3.566c-1.97-1.694-4.826-1.946-7.426-1.686-3.028 0.306-6.084 1.344-7.988 2.21-0.348 0.161-0.586 0.508-0.586 0.91v0 22c0 0.552 0.448 1 1 1 0.15 0 0.292-0.033 0.42-0.092l-0.006 0.003c1.764-0.8 4.606-1.762 7.36-2.040 2.818-0.284 5.18 0.174 6.446 1.754 0.185 0.229 0.465 0.374 0.78 0.374s0.595-0.145 0.778-0.372l0.002-0.002c1.266-1.58 3.628-2.038 6.444-1.754 2.756 0.278 5.6 1.24 7.362 2.040 0.122 0.057 0.264 0.090 0.414 0.090 0.552 0 1-0.448 1-1v-22c-0-0.402-0.238-0.749-0.58-0.907l-0.006-0.003c-1.904-0.866-4.96-1.904-7.988-2.21-2.6-0.262-5.456-0.008-7.426 1.686z"></path>
</symbol>
<symbol id="icon-bookmark-check" viewBox="0 0 32 32">
<path d="M4 4c0-2.209 1.791-4 4-4v0h16c2.209 0 4 1.791 4 4v0 27c-0 0.552-0.448 0.999-1 0.999-0.206 0-0.398-0.063-0.558-0.17l0.004 0.002-10.446-5.63-10.446 5.63c-0.156 0.105-0.348 0.167-0.554 0.167-0.552 0-1-0.447-1-0.999v-27zM8 2c-1.105 0-2 0.895-2 2v0 25.132l9.446-4.964c0.156-0.105 0.348-0.167 0.554-0.167s0.398 0.063 0.558 0.17l-0.004-0.002 9.446 4.964v-25.132c0-1.105-0.895-2-2-2v0h-16z"></path>
<path d="M21.708 10.292c0.181 0.181 0.294 0.431 0.294 0.708s-0.112 0.527-0.294 0.708l-6 6c-0.181 0.181-0.431 0.294-0.708 0.294s-0.527-0.112-0.708-0.294l-3-3c-0.181-0.181-0.293-0.431-0.293-0.708 0-0.553 0.448-1.001 1.001-1.001 0.277 0 0.527 0.112 0.708 0.293v0l2.292 2.294 5.292-5.294c0.181-0.181 0.431-0.294 0.708-0.294s0.527 0.112 0.708 0.294l0 0z"></path>
</symbol>
<symbol id="icon-bookmark-check-fill" viewBox="0 0 32 32">
<path d="M8 0h16c2.209 0 4 1.791 4 4v27c0 0 0 0 0 0.001 0 0.552-0.448 1-1 1-0.176 0-0.341-0.045-0.48-0.123l-10.52-5.74-10.515 5.737c-0.144 0.080-0.309 0.125-0.485 0.125-0.552 0-1-0.448-1-1 0-0 0-0 0-0.001v-27c0-2.209 1.791-4 4-4zM21.708 11.708c0.181-0.181 0.293-0.431 0.293-0.708 0-0.553-0.448-1.001-1.001-1.001-0.276 0-0.527 0.112-0.708 0.293v0l-5.292 5.294-2.292-2.294c-0.181-0.181-0.431-0.293-0.708-0.293-0.553 0-1.001 0.448-1.001 1.001 0 0.277 0.112 0.527 0.293 0.708v0l3 3c0.181 0.181 0.431 0.294 0.708 0.294s0.527-0.112 0.708-0.294l6-6z"></path>
</symbol>
<symbol id="icon-bookmark-fill" viewBox="0 0 32 32">
<path d="M4 4c0-2.209 1.791-4 4-4v0h16c2.209 0 4 1.791 4 4v0 27c0 0 0 0 0 0.001 0 0.552-0.448 1-1 1-0.176 0-0.341-0.045-0.485-0.125l0.005 0.003-10.52-5.74-10.52 5.74c-0.139 0.077-0.304 0.123-0.48 0.123-0.552 0-1-0.448-1-1 0-0 0-0 0-0.001v0-27z"></path>
</symbol>
<symbol id="icon-bookmarks" viewBox="0 0 32 32">
<path d="M4 8c0-2.209 1.791-4 4-4v0h12c2.209 0 4 1.791 4 4v0 23c-0 0.552-0.448 0.999-1 0.999-0.206 0-0.398-0.063-0.558-0.17l0.004 0.002-8.446-5.63-8.446 5.63c-0.156 0.105-0.348 0.167-0.554 0.167-0.552 0-1-0.447-1-0.999v-23zM8 6c-1.105 0-2 0.895-2 2v0 21.132l7.446-4.964c0.156-0.105 0.348-0.167 0.554-0.167s0.398 0.063 0.558 0.17l-0.004-0.002 7.446 4.964v-21.132c0-1.105-0.895-2-2-2v0h-12z"></path>
<path d="M8.536 2h15.464c1.105 0 2 0.895 2 2v0 23.536l0.446 0.296c0.156 0.105 0.348 0.167 0.554 0.167 0.552 0 1-0.447 1-0.999v-23c0-2.209-1.791-4-4-4v0h-12c-1.473 0-2.76 0.796-3.454 1.981l-0.010 0.019z"></path>
</symbol>
<symbol id="icon-bookmarks-fill" viewBox="0 0 32 32">
<path d="M4 8c0-2.209 1.791-4 4-4v0h12c2.209 0 4 1.791 4 4v0 23c-0 0.552-0.448 0.999-1 0.999-0.206 0-0.398-0.063-0.558-0.17l0.004 0.002-8.446-5.63-8.446 5.63c-0.156 0.105-0.348 0.167-0.554 0.167-0.552 0-1-0.447-1-0.999v-23z"></path>
<path d="M8.536 2h15.464c1.105 0 2 0.895 2 2v0 23.536l0.446 0.296c0.156 0.105 0.348 0.167 0.554 0.167 0.552 0 1-0.447 1-0.999v-23c0-2.209-1.791-4-4-4v0h-12c-1.473 0-2.76 0.796-3.454 1.981l-0.010 0.019z"></path>
</symbol>
<symbol id="icon-bookmark-x" viewBox="0 0 32 32">
<path d="M4 4c0-2.209 1.791-4 4-4v0h16c2.209 0 4 1.791 4 4v0 27c-0 0.552-0.448 0.999-1 0.999-0.206 0-0.398-0.063-0.558-0.17l0.004 0.002-10.446-5.63-10.446 5.63c-0.156 0.105-0.348 0.167-0.554 0.167-0.552 0-1-0.447-1-0.999v-27zM8 2c-1.105 0-2 0.895-2 2v0 25.132l9.446-4.964c0.156-0.105 0.348-0.167 0.554-0.167s0.398 0.063 0.558 0.17l-0.004-0.002 9.446 4.964v-25.132c0-1.105-0.895-2-2-2v0h-16z"></path>
<path d="M12.292 10.292c0.181-0.181 0.431-0.294 0.708-0.294s0.527 0.112 0.708 0.294l2.292 2.294 2.292-2.294c0.181-0.181 0.431-0.293 0.708-0.293 0.553 0 1.001 0.448 1.001 1.001 0 0.277-0.112 0.527-0.293 0.708v0l-2.294 2.292 2.294 2.292c0.181 0.181 0.293 0.431 0.293 0.708 0 0.553-0.448 1.001-1.001 1.001-0.276 0-0.527-0.112-0.708-0.293v0l-2.292-2.294-2.292 2.294c-0.181 0.181-0.431 0.293-0.708 0.293-0.553 0-1.001-0.448-1.001-1.001 0-0.276 0.112-0.527 0.293-0.708v0l2.294-2.292-2.294-2.292c-0.181-0.181-0.294-0.431-0.294-0.708s0.112-0.527 0.294-0.708l0-0z"></path>
</symbol>
<symbol id="icon-bookmark-x-fill" viewBox="0 0 32 32">
<path d="M8 0h16c2.209 0 4 1.791 4 4v27c0 0 0 0 0 0.001 0 0.552-0.448 1-1 1-0.176 0-0.341-0.045-0.48-0.123l-10.52-5.74-10.515 5.737c-0.144 0.080-0.309 0.125-0.485 0.125-0.552 0-1-0.448-1-1 0-0 0-0 0-0.001v-27c0-2.209 1.791-4 4-4zM13.708 10.292c-0.181-0.181-0.431-0.293-0.708-0.293-0.553 0-1.001 0.448-1.001 1.001 0 0.277 0.112 0.527 0.293 0.708v0l2.294 2.292-2.294 2.292c-0.181 0.181-0.293 0.431-0.293 0.708 0 0.553 0.448 1.001 1.001 1.001 0.277 0 0.527-0.112 0.708-0.293v0l2.292-2.294 2.292 2.294c0.181 0.181 0.431 0.293 0.708 0.293 0.553 0 1.001-0.448 1.001-1.001 0-0.276-0.112-0.527-0.293-0.708v0l-2.294-2.292 2.294-2.292c0.181-0.181 0.293-0.431 0.293-0.708 0-0.553-0.448-1.001-1.001-1.001-0.276 0-0.527 0.112-0.708 0.293v0l-2.292 2.294-2.292-2.294z"></path>
</symbol>
<symbol id="icon-brightness-high" viewBox="0 0 32 32">
<path d="M16 22v0c-3.314 0-6-2.686-6-6s2.686-6 6-6v0c3.314 0 6 2.686 6 6s-2.686 6-6 6zM16 24c4.418 0 8-3.582 8-8s-3.582-8-8-8v0c-4.418 0-8 3.582-8 8s3.582 8 8 8v0zM16 0c0.552 0 1 0.448 1 1v0 4c0 0.552-0.448 1-1 1s-1-0.448-1-1v0-4c0-0.552 0.448-1 1-1v0zM16 26c0.552 0 1 0.448 1 1v0 4c0 0.552-0.448 1-1 1s-1-0.448-1-1v0-4c0-0.552 0.448-1 1-1v0zM32 16c0 0.552-0.448 1-1 1v0h-4c-0.552 0-1-0.448-1-1s0.448-1 1-1v0h4c0.552 0 1 0.448 1 1v0zM6 16c0 0.552-0.448 1-1 1v0h-4c-0.552 0-1-0.448-1-1s0.448-1 1-1v0h4c0.552 0 1 0.448 1 1v0zM27.314 4.686c0.181 0.181 0.293 0.431 0.293 0.707s-0.112 0.526-0.293 0.707l-2.828 2.83c-0.181 0.181-0.431 0.293-0.707 0.293-0.553 0-1.001-0.448-1.001-1.001 0-0.277 0.112-0.527 0.294-0.708v0l2.828-2.828c0.181-0.181 0.431-0.293 0.707-0.293s0.526 0.112 0.707 0.293v0zM8.928 23.072c0.181 0.181 0.293 0.431 0.293 0.707s-0.112 0.526-0.293 0.707l-2.828 2.828c-0.18 0.174-0.425 0.281-0.695 0.281-0.552 0-1-0.448-1-1 0-0.27 0.107-0.515 0.281-0.695l2.828-2.828c0.181-0.181 0.431-0.293 0.707-0.293s0.526 0.112 0.707 0.293v0zM27.314 27.314c-0.181 0.181-0.431 0.293-0.707 0.293s-0.526-0.112-0.707-0.293l-2.828-2.828c-0.174-0.18-0.281-0.425-0.281-0.695 0-0.552 0.448-1 1-1 0.27 0 0.515 0.107 0.695 0.281l2.828 2.828c0.181 0.181 0.293 0.431 0.293 0.707s-0.112 0.526-0.293 0.707v0zM8.928 8.93c-0.181 0.181-0.431 0.293-0.707 0.293s-0.526-0.112-0.707-0.293v0l-2.828-2.83c-0.188-0.182-0.305-0.437-0.305-0.719 0-0.552 0.448-1 1-1 0.282 0 0.537 0.117 0.719 0.305l2.828 2.828c0.181 0.181 0.294 0.431 0.294 0.708s-0.112 0.527-0.294 0.708l-0 0z"></path>
</symbol>
<symbol id="icon-brightness-high-fill" viewBox="0 0 32 32">
<path d="M24 16c0 4.418-3.582 8-8 8s-8-3.582-8-8v0c0-4.418 3.582-8 8-8s8 3.582 8 8v0z"></path>
<path d="M16 0c0.552 0 1 0.448 1 1v0 4c0 0.552-0.448 1-1 1s-1-0.448-1-1v0-4c0-0.552 0.448-1 1-1v0zM16 26c0.552 0 1 0.448 1 1v0 4c0 0.552-0.448 1-1 1s-1-0.448-1-1v0-4c0-0.552 0.448-1 1-1v0zM32 16c0 0.552-0.448 1-1 1v0h-4c-0.552 0-1-0.448-1-1s0.448-1 1-1v0h4c0.552 0 1 0.448 1 1v0zM6 16c0 0.552-0.448 1-1 1v0h-4c-0.552 0-1-0.448-1-1s0.448-1 1-1v0h4c0.552 0 1 0.448 1 1v0zM27.314 4.686c0.181 0.181 0.293 0.431 0.293 0.707s-0.112 0.526-0.293 0.707l-2.828 2.83c-0.181 0.181-0.431 0.293-0.707 0.293-0.553 0-1.001-0.448-1.001-1.001 0-0.277 0.112-0.527 0.294-0.708v0l2.828-2.828c0.181-0.181 0.431-0.293 0.707-0.293s0.526 0.112 0.707 0.293v0zM8.928 23.072c0.181 0.181 0.293 0.431 0.293 0.707s-0.112 0.526-0.293 0.707l-2.828 2.828c-0.18 0.174-0.425 0.281-0.695 0.281-0.552 0-1-0.448-1-1 0-0.27 0.107-0.515 0.281-0.695l2.828-2.828c0.181-0.181 0.431-0.293 0.707-0.293s0.526 0.112 0.707 0.293v0zM27.314 27.314c-0.181 0.181-0.431 0.293-0.707 0.293s-0.526-0.112-0.707-0.293l-2.828-2.828c-0.174-0.18-0.281-0.425-0.281-0.695 0-0.552 0.448-1 1-1 0.27 0 0.515 0.107 0.695 0.281l2.828 2.828c0.181 0.181 0.293 0.431 0.293 0.707s-0.112 0.526-0.293 0.707v0zM8.928 8.93c-0.181 0.181-0.431 0.293-0.707 0.293s-0.526-0.112-0.707-0.293v0l-2.828-2.83c-0.188-0.182-0.305-0.437-0.305-0.719 0-0.552 0.448-1 1-1 0.282 0 0.537 0.117 0.719 0.305l2.828 2.828c0.181 0.181 0.294 0.431 0.294 0.708s-0.112 0.527-0.294 0.708l-0 0z"></path>
</symbol>
<symbol id="icon-cart" viewBox="0 0 32 32">
<path d="M0 3c0-0.552 0.448-1 1-1v0h3c0.466 0 0.858 0.319 0.968 0.751l0.002 0.007 0.81 3.242h23.22c0.552 0.001 0.999 0.448 0.999 1 0 0.065-0.006 0.129-0.018 0.19l0.001-0.006-3 16c-0.090 0.467-0.495 0.816-0.982 0.816h-18c-0.487-0-0.892-0.349-0.981-0.81l-0.001-0.006-2.998-15.97-0.8-3.214h-2.22c-0.552 0-1-0.448-1-1v0zM6.204 8l2.626 14h16.34l2.626-14h-21.592zM10 24v0c2.209 0 4 1.791 4 4s-1.791 4-4 4v0c-2.209 0-4-1.791-4-4s1.791-4 4-4zM24 24v0c2.209 0 4 1.791 4 4s-1.791 4-4 4v0c-2.209 0-4-1.791-4-4s1.791-4 4-4zM10 26c-1.105 0-2 0.895-2 2s0.895 2 2 2v0c1.105 0 2-0.895 2-2s-0.895-2-2-2v0zM24 26c-1.105 0-2 0.895-2 2s0.895 2 2 2v0c1.105 0 2-0.895 2-2s-0.895-2-2-2v0z"></path>
</symbol>
<symbol id="icon-cart-check" viewBox="0 0 32 32">
<path d="M0 3c0-0.552 0.448-1 1-1v0h3c0.466 0 0.858 0.319 0.968 0.751l0.002 0.007 0.81 3.242h23.22c0.552 0.001 0.999 0.448 0.999 1 0 0.065-0.006 0.129-0.018 0.19l0.001-0.006-3 16c-0.090 0.467-0.495 0.816-0.982 0.816h-18c-0.487-0-0.892-0.349-0.981-0.81l-0.001-0.006-2.998-15.97-0.8-3.214h-2.22c-0.552 0-1-0.448-1-1v0zM6.204 8l2.626 14h16.34l2.626-14h-21.592zM10 24v0c2.209 0 4 1.791 4 4s-1.791 4-4 4v0c-2.209 0-4-1.791-4-4s1.791-4 4-4zM24 24v0c2.209 0 4 1.791 4 4s-1.791 4-4 4v0c-2.209 0-4-1.791-4-4s1.791-4 4-4zM10 26c-1.105 0-2 0.895-2 2s0.895 2 2 2v0c1.105 0 2-0.895 2-2s-0.895-2-2-2v0zM24 26c-1.105 0-2 0.895-2 2s0.895 2 2 2v0c1.105 0 2-0.895 2-2s-0.895-2-2-2v0z"></path>
<path d="M22.708 11.292c0.181 0.181 0.294 0.431 0.294 0.708s-0.112 0.527-0.294 0.708l-6 6c-0.181 0.181-0.431 0.294-0.708 0.294s-0.527-0.112-0.708-0.294l-3-3c-0.181-0.181-0.293-0.431-0.293-0.708 0-0.553 0.448-1.001 1.001-1.001 0.277 0 0.527 0.112 0.708 0.293v0l2.292 2.294 5.292-5.294c0.181-0.181 0.431-0.294 0.708-0.294s0.527 0.112 0.708 0.294l0 0z"></path>
</symbol>
<symbol id="icon-cart-check-fill" viewBox="0 0 32 32">
<path d="M1 2h3c0.466 0 0.858 0.319 0.97 0.758l0.81 3.242h23.22c0.552 0.001 0.999 0.448 0.999 1 0 0.065-0.006 0.129-0.017 0.184l-3.001 16.006c-0.089 0.461-0.494 0.809-0.981 0.81h-2c2.209 0 4 1.791 4 4s-1.791 4-4 4v0c-2.209 0-4-1.791-4-4s1.791-4 4-4h-14c2.209 0 4 1.791 4 4s-1.791 4-4 4v0c-2.209 0-4-1.791-4-4s1.791-4 4-4h-2c-0.487-0-0.892-0.349-0.982-0.816l-2.996-15.97-0.802-3.214h-2.22c-0.552 0-1-0.448-1-1s0.448-1 1-1zM8 28v0c0 1.105 0.895 2 2 2s2-0.895 2-2v0c0-1.105-0.895-2-2-2s-2 0.895-2 2zM22 28v0c0 1.105 0.895 2 2 2s2-0.895 2-2v0c0-1.105-0.895-2-2-2s-2 0.895-2 2zM22.708 12.708c0.181-0.181 0.293-0.431 0.293-0.708 0-0.553-0.448-1.001-1.001-1.001-0.276 0-0.527 0.112-0.708 0.293v0l-5.292 5.294-2.292-2.294c-0.181-0.181-0.431-0.293-0.708-0.293-0.553 0-1.001 0.448-1.001 1.001 0 0.277 0.112 0.527 0.293 0.708v0l3 3c0.181 0.181 0.431 0.294 0.708 0.294s0.527-0.112 0.708-0.294l6-6z"></path>
</symbol>
<symbol id="icon-cart-fill" viewBox="0 0 32 32">
<path d="M0 3v0c0 0.552 0.448 1 1 1h2.22l0.8 3.214 2.999 15.976c0.089 0.461 0.494 0.809 0.981 0.81h18c0.487-0 0.892-0.349 0.982-0.816l2.999-15.994c0.012-0.062 0.018-0.125 0.018-0.19 0-0.552-0.447-0.999-0.999-1h-23.22l-0.81-3.242-0.002-0.007c-0.111-0.432-0.502-0.751-0.968-0.751h-3c-0.552 0-1 0.448-1 1zM10 24v0c2.209 0 4 1.791 4 4s-1.791 4-4 4v0c-2.209 0-4-1.791-4-4s1.791-4 4-4zM24 24v0c2.209 0 4 1.791 4 4s-1.791 4-4 4v0c-2.209 0-4-1.791-4-4s1.791-4 4-4zM10 26c-1.105 0-2 0.895-2 2s0.895 2 2 2v0c1.105 0 2-0.895 2-2s-0.895-2-2-2v0zM24 26c-1.105 0-2 0.895-2 2s0.895 2 2 2v0c1.105 0 2-0.895 2-2s-0.895-2-2-2v0z"></path>
</symbol>
<symbol id="icon-chat-square-text" viewBox="0 0 32 32">
<path d="M28 2v0c1.105 0 2 0.895 2 2v16c0 1.105-0.895 2-2 2h-5c-1.304 0-2.462 0.624-3.2 1.6l-3.8 5.066-3.807-5.076c-0.73-0.966-1.889-1.59-3.193-1.59h-5c-1.105 0-2-0.895-2-2v-16c0-1.105 0.895-2 2-2h24zM4 0c-2.209 0-4 1.791-4 4v0 16c0 2.209 1.791 4 4 4v0h5c0.652 0 1.231 0.312 1.596 0.795l0.004 0.005 3.8 5.066c0.369 0.488 0.948 0.8 1.6 0.8s1.231-0.312 1.596-0.795l0.004-0.005 3.8-5.066c0.369-0.488 0.948-0.8 1.6-0.8v0h5c2.209 0 4-1.791 4-4v0-16c0-2.209-1.791-4-4-4v0h-24z"></path>
<path d="M6 7c0-0.552 0.448-1 1-1v0h18c0.552 0 1 0.448 1 1s-0.448 1-1 1v0h-18c-0.552 0-1-0.448-1-1v0zM6 12c0-0.552 0.448-1 1-1v0h18c0.552 0 1 0.448 1 1s-0.448 1-1 1v0h-18c-0.552 0-1-0.448-1-1v0zM6 17c0-0.552 0.448-1 1-1v0h10c0.552 0 1 0.448 1 1s-0.448 1-1 1v0h-10c-0.552 0-1-0.448-1-1v0z"></path>
</symbol>
<symbol id="icon-chat-square-text-fill" viewBox="0 0 32 32">
<path d="M0 4c0-2.209 1.791-4 4-4v0h24c2.209 0 4 1.791 4 4v0 16c0 2.209-1.791 4-4 4v0h-5c-0.652 0-1.231 0.312-1.596 0.795l-0.004 0.005-3.8 5.066c-0.369 0.488-0.948 0.8-1.6 0.8s-1.231-0.312-1.596-0.795l-0.004-0.005-3.8-5.066c-0.369-0.488-0.948-0.8-1.6-0.8v0h-5c-2.209 0-4-1.791-4-4v0-16zM7 6c-0.552 0-1 0.448-1 1s0.448 1 1 1v0h18c0.552 0 1-0.448 1-1s-0.448-1-1-1v0h-18zM7 11c-0.552 0-1 0.448-1 1s0.448 1 1 1v0h18c0.552 0 1-0.448 1-1s-0.448-1-1-1v0h-18zM7 16c-0.552 0-1 0.448-1 1s0.448 1 1 1v0h10c0.552 0 1-0.448 1-1s-0.448-1-1-1v0h-10z"></path>
</symbol>
<symbol id="icon-check2" viewBox="0 0 32 32">
<path d="M27.708 7.292c0.181 0.181 0.294 0.431 0.294 0.708s-0.112 0.527-0.294 0.708l-14 14c-0.181 0.181-0.431 0.294-0.708 0.294s-0.527-0.112-0.708-0.294l-7-7c-0.181-0.181-0.293-0.431-0.293-0.708 0-0.553 0.448-1.001 1.001-1.001 0.277 0 0.527 0.112 0.708 0.293v0l6.292 6.294 13.292-13.294c0.181-0.181 0.431-0.294 0.708-0.294s0.527 0.112 0.708 0.294l0 0z"></path>
</symbol>
<symbol id="icon-check2-square" viewBox="0 0 32 32">
<path d="M30.708 5.292c0.181 0.181 0.294 0.431 0.294 0.708s-0.112 0.527-0.294 0.708l-14 14c-0.181 0.181-0.431 0.294-0.708 0.294s-0.527-0.112-0.708-0.294l-6-6c-0.181-0.181-0.293-0.431-0.293-0.708 0-0.553 0.448-1.001 1.001-1.001 0.277 0 0.527 0.112 0.708 0.293v0l5.292 5.294 13.292-13.294c0.181-0.181 0.431-0.294 0.708-0.294s0.527 0.112 0.708 0.294l0 0z"></path>
<path d="M3 26c0 1.657 1.343 3 3 3v0h20c1.657 0 3-1.343 3-3v0-10c0-0.552-0.448-1-1-1s-1 0.448-1 1v0 10c0 0.552-0.448 1-1 1v0h-20c-0.552 0-1-0.448-1-1v0-20c0-0.552 0.448-1 1-1v0h16c0.552 0 1-0.448 1-1s-0.448-1-1-1v0h-16c-1.657 0-3 1.343-3 3v0 20z"></path>
</symbol>
<symbol id="icon-crop" viewBox="0 0 32 32">
<path d="M7 1c0.552 0 1 0.448 1 1v0 26h26c0.552 0 1 0.448 1 1s-0.448 1-1 1v0h-4v4c0 0.552-0.448 1-1 1s-1-0.448-1-1v0-4h-21c-0.552 0-1-0.448-1-1v0-21h-4c-0.552 0-1-0.448-1-1s0.448-1 1-1v0h4v-4c0-0.552 0.448-1 1-1v0zM12 7c0-0.552 0.448-1 1-1v0h16c0.552 0 1 0.448 1 1v0 16c0 0.552-0.448 1-1 1s-1-0.448-1-1v0-15h-15c-0.552 0-1-0.448-1-1v0z"></path>
</symbol>
<symbol id="icon-download" viewBox="0 0 32 32">
<path d="M1 19.8c0.552 0 1 0.448 1 1v0 5c0 1.105 0.895 2 2 2v0h24c1.105 0 2-0.895 2-2v0-5c0-0.552 0.448-1 1-1s1 0.448 1 1v0 5c0 2.209-1.791 4-4 4v0h-24c-2.209 0-4-1.791-4-4v0-5c0-0.552 0.448-1 1-1v0z"></path>
<path d="M15.292 23.708c0.181 0.181 0.431 0.294 0.708 0.294s0.527-0.112 0.708-0.294l6-6c0.181-0.181 0.293-0.431 0.293-0.708 0-0.553-0.448-1.001-1.001-1.001-0.276 0-0.527 0.112-0.708 0.293v0l-4.292 4.294v-17.586c0-0.552-0.448-1-1-1s-1 0.448-1 1v0 17.586l-4.292-4.294c-0.181-0.181-0.431-0.293-0.708-0.293-0.553 0-1.001 0.448-1.001 1.001 0 0.276 0.112 0.527 0.293 0.708v0l6 6z"></path>
</symbol>
<symbol id="icon-envelope" viewBox="0 0 32 32">
<path d="M0 8c0-2.209 1.791-4 4-4v0h24c2.209 0 4 1.791 4 4v0 16c0 2.209-1.791 4-4 4v0h-24c-2.209 0-4-1.791-4-4v0-16zM4 6c-1.105 0-2 0.895-2 2v0 0.434l14 8.4 14-8.4v-0.434c0-1.105-0.895-2-2-2v0h-24zM30 10.766l-9.516 5.71 9.516 5.752v-11.46zM29.932 24.522l-11.39-6.882-2.542 1.526-2.544-1.526-11.388 6.88c0.237 0.859 1.012 1.48 1.931 1.48 0 0 0.001 0 0.001 0h24c0 0 0.001 0 0.001 0 0.919 0 1.693-0.62 1.927-1.464l0.003-0.014zM2 22.228l9.516-5.752-9.516-5.71v11.46z"></path>
</symbol>
<symbol id="icon-envelope-fill" viewBox="0 0 32 32">
<path d="M0.1 7.11c0.42-1.794 2.006-3.11 3.9-3.11 0 0 0 0 0 0h24c0 0 0 0 0 0 1.894 0 3.48 1.316 3.894 3.083l0.005 0.027-15.9 9.718-15.9-9.718zM0 9.394v14.208l11.606-7.116-11.606-7.092zM13.522 17.66l-13.14 8.054c0.657 1.363 2.028 2.286 3.614 2.286 0.001 0 0.003 0 0.004 0h24c0 0 0.001 0 0.001 0 1.587 0 2.958-0.924 3.605-2.264l0.010-0.024-13.14-8.054-2.476 1.514-2.478-1.514zM20.394 16.488l11.606 7.114v-14.208l-11.606 7.092z"></path>
</symbol>
<symbol id="icon-envelope-open" viewBox="0 0 32 32">
<path d="M16.94 2.636c-0.272-0.148-0.596-0.235-0.94-0.235s-0.668 0.087-0.951 0.24l0.011-0.005-12 6.4c-0.635 0.343-1.059 1.004-1.060 1.764v1.636l11.448 6.93 2.552-1.532 2.552 1.532 11.448-6.93v-1.636c-0.001-0.76-0.425-1.421-1.049-1.759l-0.011-0.005-12-6.4zM30 14.776l-9.508 5.754 9.508 5.704v-11.46zM29.93 28.524l-13.93-8.358-13.93 8.36c0.239 0.856 1.012 1.474 1.93 1.474 0 0 0 0 0 0h24c0.918-0 1.692-0.619 1.927-1.462l0.003-0.014zM2 26.234l9.508-5.704-9.508-5.756v11.46zM14.118 0.87c0.545-0.296 1.193-0.47 1.882-0.47s1.337 0.174 1.903 0.481l-0.021-0.010 12 6.4c1.27 0.687 2.118 2.009 2.118 3.53 0 0 0 0 0 0v-0 17.2c0 2.209-1.791 4-4 4v0h-24c-2.209 0-4-1.791-4-4v0-17.2c0-0 0-0 0-0 0-1.52 0.848-2.842 2.097-3.519l0.021-0.010 12-6.4z"></path>
</symbol>
<symbol id="icon-envelope-open-fill" viewBox="0 0 32 32">
<path d="M17.882 0.87c-0.545-0.296-1.193-0.47-1.882-0.47s-1.337 0.174-1.903 0.481l0.021-0.010-12 6.4c-1.27 0.687-2.118 2.009-2.118 3.53 0 0 0 0 0 0v-0 0.626l13.418 7.866 2.582-1.436 2.582 1.434 13.418-7.86v-0.63c0-0 0-0 0-0 0-1.52-0.848-2.842-2.097-3.519l-0.021-0.010-12-6.4zM32 13.746l-11.386 6.674 11.386 6.324v-13zM31.882 28.968l-15.882-8.824-15.882 8.824c0.449 1.755 2.016 3.032 3.881 3.032 0 0 0.001 0 0.001 0h24c0 0 0.001 0 0.001 0 1.865 0 3.433-1.277 3.875-3.004l0.006-0.028zM0 26.746l11.386-6.326-11.386-6.674v13z"></path>
</symbol>
<symbol id="icon-eye-slash" viewBox="0 0 32 32">
<path d="M26.718 22.476c3.402-3.036 5.282-6.476 5.282-6.476s-6-11-16-11c-2.020 0.007-3.937 0.439-5.669 1.212l0.089-0.036 1.54 1.542c1.201-0.451 2.589-0.714 4.038-0.718h0.002c4.24 0 7.758 2.336 10.336 4.914 1.211 1.217 2.304 2.554 3.26 3.99l0.060 0.096c-0.116 0.174-0.244 0.366-0.39 0.576-0.67 0.96-1.66 2.24-2.93 3.51-0.33 0.33-0.674 0.656-1.034 0.972l1.416 1.418z"></path>
<path d="M22.594 18.352c0.259-0.701 0.409-1.512 0.409-2.357 0-3.866-3.134-7-7-7-0.845 0-1.655 0.15-2.405 0.424l0.049-0.016 1.646 1.646c0.213-0.032 0.459-0.050 0.708-0.050 2.761 0 5 2.239 5 5 0 0.25-0.018 0.496-0.054 0.736l0.003-0.027 1.644 1.644zM16.708 20.95l1.644 1.644c-0.701 0.259-1.512 0.409-2.357 0.409-3.866 0-7-3.134-7-7 0-0.845 0.15-1.655 0.424-2.405l-0.016 0.049 1.646 1.646c-0.032 0.213-0.050 0.459-0.050 0.708 0 2.761 2.239 5 5 5 0.25 0 0.496-0.018 0.736-0.054l-0.027 0.003z"></path>
<path d="M6.7 10.94c-0.36 0.32-0.706 0.644-1.036 0.974-1.211 1.217-2.304 2.554-3.26 3.99l-0.060 0.096 0.39 0.576c0.67 0.96 1.66 2.24 2.93 3.51 2.578 2.578 6.098 4.914 10.336 4.914 1.432 0 2.78-0.266 4.040-0.72l1.54 1.544c-1.643 0.737-3.56 1.169-5.577 1.176h-0.003c-10 0-16-11-16-11s1.878-3.442 5.282-6.476l1.416 1.418z"></path>
<path d="M27.292 28.708l-24-24 1.416-1.416 24 24-1.416 1.416z"></path>
</symbol>
<symbol id="icon-eye-slash-fill" viewBox="0 0 32 32">
<path d="M21.58 25.824l-3.228-3.23c-0.701 0.259-1.512 0.409-2.357 0.409-3.866 0-7-3.134-7-7 0-0.845 0.15-1.655 0.424-2.405l-0.016 0.049-4.12-4.12c-3.408 3.030-5.284 6.474-5.284 6.474s6 11 16 11c2.020-0.007 3.937-0.439 5.669-1.212l-0.089 0.036zM10.42 6.176c1.643-0.737 3.56-1.169 5.577-1.176h0.003c10 0 16 11 16 11s-1.878 3.442-5.282 6.476l-4.124-4.124c0.259-0.701 0.409-1.512 0.409-2.357 0-3.866-3.134-7-7-7-0.845 0-1.655 0.15-2.405 0.424l0.049-0.016-3.226-3.226z"></path>
<path d="M11.050 15.292c-0.032 0.213-0.050 0.459-0.050 0.708 0 2.761 2.239 5 5 5 0.25 0 0.496-0.018 0.736-0.054l-0.027 0.003-5.66-5.658zM20.95 16.708l-5.658-5.66c0.213-0.032 0.459-0.050 0.708-0.050 2.761 0 5 2.239 5 5 0 0.25-0.018 0.496-0.054 0.736l0.003-0.027z"></path>
<path d="M27.292 28.708l-24-24 1.416-1.416 24 24-1.416 1.416z"></path>
</symbol>
<symbol id="icon-folder2" viewBox="0 0 32 32">
<path d="M2 7c0-1.657 1.343-3 3-3v0h5.528c1.916 0 3.52 1.12 4.622 2.368 0.82 0.928 1.81 1.632 2.85 1.632h9c1.657 0 3 1.343 3 3v0 14c0 1.657-1.343 3-3 3v0h-22c-1.657 0-3-1.343-3-3v0-18zM5 6c-0.552 0-1 0.448-1 1v0 5h24v-1c0-0.552-0.448-1-1-1v0h-9c-1.928 0-3.42-1.258-4.348-2.308-0.904-1.024-2.012-1.692-3.124-1.692h-5.528zM28 14h-24v11c0 0.552 0.448 1 1 1v0h22c0.552 0 1-0.448 1-1v0-11z"></path>
</symbol>
<symbol id="icon-folder2-open" viewBox="0 0 32 32">
<path d="M2 7c0-1.657 1.343-3 3-3v0h5.528c1.916 0 3.52 1.12 4.622 2.368 0.82 0.928 1.81 1.632 2.85 1.632h9c1.657 0 3 1.343 3 3v0 1.28c1.14 0.53 1.88 1.752 1.712 3.092l-1.28 10.248c-0.319 2.482-2.419 4.38-4.961 4.38-0.002 0-0.003 0-0.005 0h-18.934c-0 0-0 0-0.001 0-2.543 0-4.642-1.898-4.959-4.355l-0.003-0.025-1.28-10.248c-0.015-0.112-0.023-0.241-0.023-0.373 0-1.197 0.701-2.23 1.715-2.712l0.018-0.008v-5.28zM4 12h24v-1c0-0.552-0.448-1-1-1v0h-9c-1.928 0-3.42-1.258-4.348-2.308-0.904-1.024-2.012-1.692-3.124-1.692h-5.528c-0.552 0-1 0.448-1 1v0 5zM3.266 14c-0.552 0-1 0.448-1 1 0 0.044 0.003 0.087 0.008 0.129l-0.001-0.005 1.28 10.248c0.191 1.489 1.451 2.628 2.977 2.628 0 0 0.001 0 0.001 0h18.936c0 0 0.001 0 0.001 0 1.526 0 2.785-1.139 2.975-2.613l0.002-0.015 1.28-10.248c0.005-0.037 0.008-0.080 0.008-0.124 0-0.552-0.448-1-1-1h-25.468z"></path>
</symbol>
<symbol id="icon-folder-fill" viewBox="0 0 32 32">
<path d="M19.656 6h7.964c0 0 0 0 0 0 2.209 0 4 1.791 4 4 0 0.127-0.006 0.254-0.018 0.378l0.001-0.016-1.274 14c-0.192 2.047-1.901 3.637-3.982 3.638h-20.696c-2.081-0.001-3.79-1.591-3.981-3.622l-0.001-0.016-1.274-14c-0.011-0.109-0.017-0.236-0.017-0.365 0-0.843 0.262-1.625 0.709-2.268l-0.009 0.013-0.080-1.742c0-2.209 1.791-4 4-4v0h7.344c1.104 0 2.104 0.448 2.828 1.172l1.656 1.656c0.724 0.724 1.724 1.172 2.828 1.172h0zM3.012 6.24c0.428-0.156 0.888-0.24 1.368-0.24h10.792l-1.414-1.414c-0.362-0.362-0.862-0.586-1.414-0.586h-7.344c-0 0-0 0-0 0-1.091 0-1.978 0.874-2 1.96l-0 0.002 0.012 0.278z"></path>
</symbol>
<symbol id="icon-folder-minus" viewBox="0 0 32 32">
<path d="M19.656 8h7.964c1.104 0.001 1.998 0.896 1.998 2 0 0.063-0.003 0.126-0.008 0.18l-0.53 5.82h2.012l0.512-5.638-0.001 0.016c0.012-0.124 0.018-0.25 0.018-0.378 0-2.209-1.791-4-4-4-0 0-0 0-0 0h-7.964c-1.104-0-2.104-0.448-2.828-1.172l-1.656-1.656c-0.724-0.724-1.724-1.172-2.828-1.172h-7.344c-2.209 0-4 1.791-4 4l0.080 1.742 0.009-0.013c-0.447 0.644-0.709 1.425-0.709 2.269 0 0.128 0.006 0.255 0.017 0.365l1.274 14 0.001 0.016c0.19 2.031 1.9 3.621 3.981 3.622h12.348v-2h-12.348c-1.040-0.001-1.895-0.796-1.99-1.82l-1.274-14 0.001 0.008c-0.006-0.062-0.009-0.125-0.009-0.188 0-1.105 0.895-2 2-2 0 0 0 0 0 0h15.276zM13.756 4.586l1.418 1.414h-10.794c-0.48 0-0.94 0.084-1.368 0.24l-0.012-0.28c0.022-1.087 0.909-1.96 2-1.96 0 0 0 0 0 0h7.344c0.552 0 1.052 0.224 1.414 0.586v0z"></path>
<path d="M22 23c0-0.552 0.448-1 1-1v0h8c0.552 0 1 0.448 1 1s-0.448 1-1 1v0h-8c-0.552 0-1-0.448-1-1v0z"></path>
</symbol>
<symbol id="icon-folder-plus" viewBox="0 0 32 32">
<path d="M19.656 8h7.964c1.104 0.001 1.998 0.896 1.998 2 0 0.063-0.003 0.126-0.008 0.18l-0.53 5.82h2.012l0.512-5.638-0.001 0.016c0.012-0.124 0.018-0.25 0.018-0.378 0-2.209-1.791-4-4-4-0 0-0 0-0 0h-7.964c-1.104-0-2.104-0.448-2.828-1.172l-1.656-1.656c-0.724-0.724-1.724-1.172-2.828-1.172h-7.344c-2.209 0-4 1.791-4 4l0.080 1.742 0.009-0.013c-0.447 0.644-0.709 1.425-0.709 2.269 0 0.128 0.006 0.255 0.017 0.365l1.274 14 0.001 0.016c0.19 2.031 1.9 3.621 3.981 3.622h12.348v-2h-12.348c-1.040-0.001-1.895-0.796-1.99-1.82l-1.274-14 0.001 0.008c-0.006-0.062-0.009-0.125-0.009-0.188 0-1.105 0.895-2 2-2 0 0 0 0 0 0h15.276zM13.756 4.586l1.418 1.414h-10.794c-0.48 0-0.94 0.084-1.368 0.24l-0.012-0.28c0.022-1.087 0.909-1.96 2-1.96 0 0 0 0 0 0h7.344c0.552 0 1.052 0.224 1.414 0.586v0z"></path>
<path d="M27 20c0.552 0 1 0.448 1 1v0 3h3c0.552 0 1 0.448 1 1s-0.448 1-1 1v0h-3v3c0 0.552-0.448 1-1 1s-1-0.448-1-1v0-3h-3c-0.552 0-1-0.448-1-1s0.448-1 1-1v0h3v-3c0-0.552 0.448-1 1-1v0z"></path>
</symbol>
<symbol id="icon-gear" viewBox="0 0 32 32">
<path d="M17.674 3.252c-0.492-1.67-2.856-1.67-3.348 0l-0.188 0.638c-0.473 1.566-1.902 2.686-3.593 2.686-0.657 0-1.274-0.169-1.81-0.466l0.019 0.010-0.584-0.32c-1.528-0.83-3.2 0.84-2.368 2.37l0.318 0.584c0.287 0.517 0.456 1.135 0.456 1.791 0 1.691-1.12 3.12-2.659 3.586l-0.027 0.007-0.638 0.188c-1.67 0.492-1.67 2.856 0 3.348l0.638 0.188c1.566 0.472 2.687 1.902 2.687 3.593 0 0.657-0.169 1.275-0.467 1.812l0.010-0.019-0.32 0.582c-0.83 1.528 0.84 3.2 2.37 2.368l0.584-0.318c0.517-0.287 1.134-0.456 1.791-0.456 1.692 0 3.121 1.121 3.587 2.661l0.007 0.027 0.188 0.636c0.492 1.67 2.856 1.67 3.348 0l0.188-0.638c0.472-1.566 1.902-2.687 3.593-2.687 0.657 0 1.275 0.169 1.812 0.467l-0.019-0.010 0.582 0.32c1.528 0.83 3.2-0.84 2.368-2.37l-0.318-0.582c-0.287-0.518-0.457-1.135-0.457-1.792 0-1.692 1.122-3.122 2.662-3.587l0.027-0.007 0.636-0.188c1.67-0.492 1.67-2.856 0-3.348l-0.638-0.188c-1.566-0.473-2.686-1.902-2.686-3.593 0-0.657 0.169-1.274 0.466-1.81l-0.010 0.019 0.32-0.584c0.83-1.528-0.84-3.2-2.37-2.368l-0.582 0.318c-0.518 0.288-1.137 0.458-1.795 0.458-1.692 0-3.121-1.121-3.587-2.661l-0.007-0.027-0.188-0.638zM12.408 2.686c1.054-3.58 6.13-3.58 7.184 0l0.188 0.638c0.22 0.73 0.886 1.253 1.675 1.253 0.306 0 0.594-0.079 0.844-0.217l-0.009 0.005 0.584-0.32c3.28-1.784 6.868 1.802 5.080 5.082l-0.318 0.584c-0.134 0.241-0.213 0.529-0.213 0.835 0 0.788 0.523 1.455 1.24 1.672l0.012 0.003 0.638 0.188c3.58 1.054 3.58 6.13 0 7.184l-0.638 0.188c-0.73 0.22-1.253 0.886-1.253 1.675 0 0.306 0.079 0.594 0.217 0.844l-0.005-0.009 0.32 0.584c1.786 3.28-1.804 6.868-5.082 5.080l-0.584-0.318c-0.241-0.134-0.529-0.213-0.835-0.213-0.788 0-1.455 0.523-1.672 1.24l-0.003 0.012-0.188 0.638c-1.054 3.58-6.13 3.58-7.184 0l-0.188-0.638c-0.22-0.73-0.886-1.253-1.675-1.253-0.306 0-0.594 0.079-0.844 0.217l0.009-0.005-0.584 0.32c-3.28 1.786-6.866-1.804-5.080-5.082l0.318-0.584c0.134-0.241 0.213-0.529 0.213-0.835 0-0.788-0.523-1.455-1.24-1.672l-0.012-0.003-0.638-0.188c-3.58-1.054-3.58-6.13 0-7.184l0.638-0.188c0.73-0.22 1.253-0.886 1.253-1.675 0-0.306-0.079-0.594-0.217-0.844l0.005 0.009-0.32-0.584c-1.784-3.28 1.804-6.866 5.082-5.080l0.584 0.318c0.241 0.134 0.529 0.213 0.835 0.213 0.788 0 1.455-0.523 1.672-1.24l0.003-0.012 0.188-0.638z"></path>
<path d="M16 11.508c-2.481 0-4.492 2.011-4.492 4.492s2.011 4.492 4.492 4.492v0c2.481 0 4.492-2.011 4.492-4.492s-2.011-4.492-4.492-4.492v0zM9.508 16c0-3.585 2.907-6.492 6.492-6.492s6.492 2.907 6.492 6.492v0c0 3.585-2.907 6.492-6.492 6.492s-6.492-2.907-6.492-6.492v0z"></path>
</symbol>
<symbol id="icon-gear-fill" viewBox="0 0 32 32">
<path d="M18.81 2.1l0.2 0.68 0.005 0.021c0.363 1.204 1.481 2.080 2.803 2.080 0.514 0 0.997-0.132 1.401-0.357l0.622-0.338c2.564-1.398 5.37 1.408 3.974 3.974l-0.34 0.62 0.008-0.015c-0.232 0.42-0.365 0.903-0.365 1.416 0 1.322 0.877 2.44 2.101 2.809l0.68 0.2c2.8 0.826 2.8 4.794 0 5.62l-0.68 0.2-0.021 0.005c-1.204 0.363-2.080 1.481-2.080 2.803 0 0.514 0.132 0.997 0.357 1.401l0.338 0.622c1.398 2.564-1.408 5.37-3.974 3.974l-0.62-0.34 0.015 0.008c-0.42-0.232-0.903-0.365-1.416-0.365-1.322 0-2.44 0.877-2.809 2.101l-0.2 0.68c-0.826 2.8-4.794 2.8-5.62 0l-0.2-0.68-0.005-0.021c-0.364-1.204-1.481-2.080-2.803-2.080-0.514 0-0.997 0.132-1.401 0.357l-0.622 0.338c-2.564 1.398-5.37-1.408-3.974-3.974l0.34-0.62-0.008 0.015c0.232-0.42 0.365-0.903 0.365-1.416 0-1.322-0.877-2.44-2.101-2.809l-0.68-0.2c-2.8-0.826-2.8-4.794 0-5.62l0.68-0.2c1.79-0.528 2.636-2.57 1.744-4.21l-0.338-0.622c-1.398-2.564 1.408-5.37 3.974-3.974l0.62 0.34-0.015-0.008c0.42 0.232 0.903 0.365 1.416 0.365 1.322 0 2.44-0.877 2.809-2.101l0.2-0.68c0.826-2.8 4.794-2.8 5.62 0zM16 21.86c3.236 0 5.86-2.624 5.86-5.86s-2.624-5.86-5.86-5.86v0c-3.235 0-5.858 2.623-5.858 5.858s2.623 5.858 5.858 5.858v0z"></path>
</symbol>
<symbol id="icon-grid" viewBox="0 0 32 32">
<path d="M2 5c0-1.657 1.343-3 3-3v0h6c1.657 0 3 1.343 3 3v0 6c0 1.657-1.343 3-3 3v0h-6c-1.657 0-3-1.343-3-3v0-6zM5 4c-0.552 0-1 0.448-1 1v0 6c0 0.552 0.448 1 1 1v0h6c0.552 0 1-0.448 1-1v0-6c0-0.552-0.448-1-1-1v0h-6zM18 5c0-1.657 1.343-3 3-3v0h6c1.657 0 3 1.343 3 3v0 6c0 1.657-1.343 3-3 3v0h-6c-1.657 0-3-1.343-3-3v0-6zM21 4c-0.552 0-1 0.448-1 1v0 6c0 0.552 0.448 1 1 1v0h6c0.552 0 1-0.448 1-1v0-6c0-0.552-0.448-1-1-1v0h-6zM2 21c0-1.657 1.343-3 3-3v0h6c1.657 0 3 1.343 3 3v0 6c0 1.657-1.343 3-3 3v0h-6c-1.657 0-3-1.343-3-3v0-6zM5 20c-0.552 0-1 0.448-1 1v0 6c0 0.552 0.448 1 1 1v0h6c0.552 0 1-0.448 1-1v0-6c0-0.552-0.448-1-1-1v0h-6zM18 21c0-1.657 1.343-3 3-3v0h6c1.657 0 3 1.343 3 3v0 6c0 1.657-1.343 3-3 3v0h-6c-1.657 0-3-1.343-3-3v0-6zM21 20c-0.552 0-1 0.448-1 1v0 6c0 0.552 0.448 1 1 1v0h6c0.552 0 1-0.448 1-1v0-6c0-0.552-0.448-1-1-1v0h-6z"></path>
</symbol>
<symbol id="icon-grid-fill" viewBox="0 0 32 32">
<path d="M2 5c0-1.657 1.343-3 3-3v0h6c1.657 0 3 1.343 3 3v0 6c0 1.657-1.343 3-3 3v0h-6c-1.657 0-3-1.343-3-3v0-6zM18 5c0-1.657 1.343-3 3-3v0h6c1.657 0 3 1.343 3 3v0 6c0 1.657-1.343 3-3 3v0h-6c-1.657 0-3-1.343-3-3v0-6zM2 21c0-1.657 1.343-3 3-3v0h6c1.657 0 3 1.343 3 3v0 6c0 1.657-1.343 3-3 3v0h-6c-1.657 0-3-1.343-3-3v0-6zM18 21c0-1.657 1.343-3 3-3v0h6c1.657 0 3 1.343 3 3v0 6c0 1.657-1.343 3-3 3v0h-6c-1.657 0-3-1.343-3-3v0-6z"></path>
</symbol>
<symbol id="icon-heart" viewBox="0 0 32 32">
<path d="M16 5.496l-1.434-1.474c-3.366-3.46-9.538-2.266-11.766 2.084-1.046 2.046-1.282 5 0.628 8.77 1.84 3.63 5.668 7.978 12.572 12.714 6.904-4.736 10.73-9.084 12.572-12.714 1.91-3.772 1.676-6.724 0.628-8.77-2.228-4.35-8.4-5.546-11.766-2.086l-1.434 1.476zM16 30c-30.666-20.264-9.442-36.080-0.352-27.714 0.12 0.11 0.238 0.224 0.352 0.342 0.113-0.117 0.227-0.228 0.346-0.335l0.006-0.005c9.088-8.372 30.314 7.446-0.352 27.712z"></path>
</symbol>
<symbol id="icon-heart-fill" viewBox="0 0 32 32">
<path d="M16 2.628c8.876-9.124 31.068 6.842 0 27.372-31.068-20.528-8.876-36.496 0-27.372z"></path>
</symbol>
<symbol id="icon-house-door" viewBox="0 0 32 32">
<path d="M15.292 2.292c0.181-0.181 0.431-0.294 0.708-0.294s0.527 0.112 0.708 0.294l12 12c0.18 0.181 0.292 0.431 0.292 0.706 0 0.001 0 0.001 0 0.002v-0 14c0 0.552-0.448 1-1 1v0h-9c-0.552 0-1-0.448-1-1v0-8h-4v8c0 0.552-0.448 1-1 1v0h-9c-0.552 0-1-0.448-1-1v0-14c0-0.001 0-0.001 0-0.002 0-0.276 0.112-0.525 0.292-0.706l12-12zM5 15.414v12.586h7v-8c0-0.552 0.448-1 1-1v0h6c0.552 0 1 0.448 1 1v0 8h7v-12.586l-11-11-11 11z"></path>
<path d="M26 5v7l-4-4v-3c0-0.552 0.448-1 1-1v0h2c0.552 0 1 0.448 1 1v0z"></path>
</symbol>
<symbol id="icon-house-door-fill" viewBox="0 0 32 32">
<path d="M13 21.99v7.010c0 0.552-0.448 1-1 1v0h-8c-0.552 0-1-0.448-1-1v0-14c0-0.001 0-0.001 0-0.002 0-0.276 0.112-0.525 0.292-0.706l12-12c0.181-0.181 0.431-0.294 0.708-0.294s0.527 0.112 0.708 0.294l12 12c0.18 0.181 0.292 0.431 0.292 0.706 0 0.001 0 0.001 0 0.002v-0 14c0 0.552-0.448 1-1 1v0h-8c-0.552 0-1-0.448-1-1v0-7c0-0.5-0.5-1-1-1h-4c-0.5 0-1 0.5-1 0.99z"></path>
<path d="M26 5v7l-4-4v-3c0-0.552 0.448-1 1-1v0h2c0.552 0 1 0.448 1 1v0z"></path>
</symbol>
<symbol id="icon-image" viewBox="0 0 32 32">
<path d="M28.004 4v0c1.105 0 2 0.895 2 2v13l-7.548-3.891c-0.136-0.069-0.289-0.108-0.452-0.108-0.276 0-0.526 0.112-0.707 0.293l-7.42 7.42-5.316-3.544c-0.159-0.107-0.351-0.17-0.558-0.17-0.276 0-0.525 0.111-0.706 0.292l-5.292 4.708v-18c0-1.105 0.895-2 2-2h24zM4.004 2c-2.209 0-4 1.791-4 4v0 20c0 2.209 1.791 4 4 4v0h24c2.209 0 4-1.791 4-4v0-20c0-2.209-1.791-4-4-4v0h-24zM12.004 11c0 1.657-1.343 3-3 3s-3-1.343-3-3v0c0-1.657 1.343-3 3-3s3 1.343 3 3v0z"></path>
</symbol>
<symbol id="icon-image-fill" viewBox="0 0 32 32">
<path d="M0.004 6v20c0 2.209 1.791 4 4 4h24c2.209 0 4-1.791 4-4v-20c0-2.209-1.791-4-4-4h-24c-2.209 0-4 1.791-4 4zM2.004 24l5.292-4.708c0.181-0.18 0.43-0.292 0.706-0.292 0.207 0 0.398 0.063 0.558 0.17l-0.004-0.002 5.32 3.546 7.42-7.42c0.181-0.181 0.431-0.293 0.707-0.293 0.163 0 0.316 0.039 0.452 0.108l-0.006-0.003 7.554 3.894v7c0 1.105-0.895 2-2 2v0h-24c-1.105 0-2-0.895-2-2v0-2zM12.004 11c0 1.657-1.343 3-3 3s-3-1.343-3-3v0c0-1.657 1.343-3 3-3s3 1.343 3 3v0z"></path>
</symbol>
<symbol id="icon-images" viewBox="0 0 32 32">
<path d="M24.004 8v0c1.105 0 2 0.895 2 2v11l-3.554-3.894 0.006 0.003c-0.136-0.069-0.289-0.108-0.452-0.108-0.276 0-0.526 0.112-0.707 0.293l-7.42 7.42-5.316-3.544c-0.159-0.107-0.351-0.17-0.558-0.17-0.276 0-0.525 0.111-0.706 0.292l-5.292 4.708v-16c0-1.105 0.895-2 2-2h20zM4.004 6c-2.209 0-4 1.791-4 4v0 16c0 2.209 1.791 4 4 4v0h20c2.209 0 4-1.791 4-4v0-16c0-2.209-1.791-4-4-4v0h-20zM12.004 15c0 1.657-1.343 3-3 3s-3-1.343-3-3v0c0-1.657 1.343-3 3-3s3 1.343 3 3v0z"></path>
<path d="M8 4h20c1.105 0 2 0.895 2 2v0 16c0 1.105-0.895 2-2 2v0 2c2.209 0 4-1.791 4-4v0-16c0-2.209-1.791-4-4-4v0h-20c-2.209 0-4 1.791-4 4v0h2c0-1.105 0.895-2 2-2v0z"></path>
</symbol>
<symbol id="icon-info-square" viewBox="0 0 32 32">
<path d="M28 2v0c1.105 0 2 0.895 2 2v24c0 1.105-0.895 2-2 2h-24c-1.105 0-2-0.895-2-2v-24c0-1.105 0.895-2 2-2h24zM4 0c-2.209 0-4 1.791-4 4v0 24c0 2.209 1.791 4 4 4v0h24c2.209 0 4-1.791 4-4v0-24c0-2.209-1.791-4-4-4v0h-24z"></path>
<path d="M17.86 13.176l-4.58 0.574-0.164 0.76 0.9 0.166c0.588 0.14 0.704 0.352 0.576 0.938l-1.476 6.936c-0.388 1.794 0.21 2.638 1.616 2.638 1.090 0 2.356-0.504 2.93-1.196l0.176-0.832c-0.4 0.352-0.984 0.492-1.372 0.492-0.55 0-0.75-0.386-0.608-1.066l2.002-9.41z"></path>
<path d="M18 9c0 1.105-0.895 2-2 2s-2-0.895-2-2c0-1.105 0.895-2 2-2s2 0.895 2 2z"></path>
</symbol>
<symbol id="icon-info-square-fill" viewBox="0 0 32 32">
<path d="M0 4c0-2.209 1.791-4 4-4v0h24c2.209 0 4 1.791 4 4v0 24c0 2.209-1.791 4-4 4v0h-24c-2.209 0-4-1.791-4-4v0-24zM17.86 13.176l-4.58 0.574-0.164 0.76 0.9 0.166c0.588 0.14 0.704 0.352 0.576 0.938l-1.476 6.936c-0.388 1.794 0.21 2.638 1.616 2.638 1.090 0 2.356-0.504 2.93-1.196l0.176-0.832c-0.4 0.352-0.984 0.492-1.372 0.492-0.55 0-0.75-0.386-0.608-1.066l2.002-9.41zM16 11c1.105 0 2-0.895 2-2s-0.895-2-2-2v0c-1.105 0-2 0.895-2 2s0.895 2 2 2v0z"></path>
</symbol>
<symbol id="icon-justify" viewBox="0 0 32 32">
<path d="M4 25c0-0.552 0.448-1 1-1v0h22c0.552 0 1 0.448 1 1s-0.448 1-1 1v0h-22c-0.552 0-1-0.448-1-1v0zM4 19c0-0.552 0.448-1 1-1v0h22c0.552 0 1 0.448 1 1s-0.448 1-1 1v0h-22c-0.552 0-1-0.448-1-1v0zM4 13c0-0.552 0.448-1 1-1v0h22c0.552 0 1 0.448 1 1s-0.448 1-1 1v0h-22c-0.552 0-1-0.448-1-1v0zM4 7c0-0.552 0.448-1 1-1v0h22c0.552 0 1 0.448 1 1s-0.448 1-1 1v0h-22c-0.552 0-1-0.448-1-1v0z"></path>
</symbol>
<symbol id="icon-person-square" viewBox="0 0 32 32">
<path d="M28 2v0c1.105 0 2 0.895 2 2v24c0 1.105-0.895 2-2 2h-24c-1.105 0-2-0.895-2-2v-24c0-1.105 0.895-2 2-2h24zM4 0c-2.209 0-4 1.791-4 4v0 24c0 2.209 1.791 4 4 4v0h24c2.209 0 4-1.791 4-4v0-24c0-2.209-1.791-4-4-4v0h-24z"></path>
<path d="M4 30v-2c0-2 2-8 12-8s12 6 12 8v2h-24zM16 18c3.314 0 6-2.686 6-6s-2.686-6-6-6v0c-3.314 0-6 2.686-6 6s2.686 6 6 6v0z"></path>
</symbol>
<symbol id="icon-plus-square" viewBox="0 0 32 32">
<path d="M28 2v0c1.105 0 2 0.895 2 2v24c0 1.105-0.895 2-2 2h-24c-1.105 0-2-0.895-2-2v-24c0-1.105 0.895-2 2-2h24zM4 0c-2.209 0-4 1.791-4 4v0 24c0 2.209 1.791 4 4 4v0h24c2.209 0 4-1.791 4-4v0-24c0-2.209-1.791-4-4-4v0h-24z"></path>
<path d="M16 8c0.552 0 1 0.448 1 1v0 6h6c0.552 0 1 0.448 1 1s-0.448 1-1 1v0h-6v6c0 0.552-0.448 1-1 1s-1-0.448-1-1v0-6h-6c-0.552 0-1-0.448-1-1s0.448-1 1-1v0h6v-6c0-0.552 0.448-1 1-1v0z"></path>
</symbol>
<symbol id="icon-plus-square-fill" viewBox="0 0 32 32">
<path d="M4 0h24c2.209 0 4 1.791 4 4v24c0 2.209-1.791 4-4 4h-24c-2.209 0-4-1.791-4-4v-24c0-2.209 1.791-4 4-4zM17 9c0-0.552-0.448-1-1-1s-1 0.448-1 1v0 6h-6c-0.552 0-1 0.448-1 1s0.448 1 1 1v0h6v6c0 0.552 0.448 1 1 1s1-0.448 1-1v0-6h6c0.552 0 1-0.448 1-1s-0.448-1-1-1v0h-6v-6z"></path>
</symbol>
<symbol id="icon-search" viewBox="0 0 32 32">
<path d="M20.884 20.884c0.362-0.362 0.862-0.587 1.415-0.587s1.053 0.224 1.415 0.587l7.7 7.7c0.362 0.362 0.586 0.862 0.586 1.415 0 1.105-0.896 2-2 2-0.552 0-1.052-0.224-1.414-0.585l-7.7-7.7c-0.362-0.362-0.587-0.862-0.587-1.415s0.224-1.053 0.587-1.415l0-0z"></path>
<path d="M13 24c6.075 0 11-4.925 11-11s-4.925-11-11-11v0c-6.075 0-11 4.925-11 11s4.925 11 11 11v0zM26 13c0 7.18-5.82 13-13 13s-13-5.82-13-13v0c0-7.18 5.82-13 13-13s13 5.82 13 13v0z"></path>
</symbol>
<symbol id="icon-share" viewBox="0 0 32 32">
<path d="M27 2c-1.657 0-3 1.343-3 3s1.343 3 3 3v0c1.657 0 3-1.343 3-3s-1.343-3-3-3v0zM22 5c0-0 0-0 0-0.001 0-2.761 2.239-5 5-5s5 2.239 5 5c0 2.761-2.239 5-5 5-1.514 0-2.872-0.673-3.789-1.737l-0.005-0.007-13.436 6.24c0.147 0.45 0.232 0.967 0.232 1.504s-0.085 1.054-0.242 1.539l0.010-0.035 13.436 6.24c0.922-1.068 2.278-1.74 3.791-1.74 2.761 0 5 2.239 5 5s-2.239 5-5 5c-2.761 0-5-2.239-5-5 0-0.539 0.085-1.057 0.243-1.543l-0.010 0.035-13.436-6.24c-0.922 1.070-2.28 1.744-3.795 1.744-2.761 0-5-2.239-5-5s2.239-5 5-5c1.515 0 2.872 0.674 3.789 1.738l0.005 0.007 13.436-6.24c-0.146-0.448-0.23-0.964-0.23-1.499 0-0.002 0-0.003 0-0.005v0zM5 13c-1.657 0-3 1.343-3 3s1.343 3 3 3v0c1.657 0 3-1.343 3-3s-1.343-3-3-3v0zM27 24c-1.657 0-3 1.343-3 3s1.343 3 3 3v0c1.657 0 3-1.343 3-3s-1.343-3-3-3v0z"></path>
</symbol>
<symbol id="icon-share-fill" viewBox="0 0 32 32">
<path d="M22 5c0-0 0-0 0-0.001 0-2.761 2.239-5 5-5s5 2.239 5 5c0 2.761-2.239 5-5 5-1.514 0-2.872-0.673-3.789-1.737l-0.005-0.007-13.436 6.24c0.147 0.45 0.232 0.967 0.232 1.504s-0.085 1.054-0.242 1.539l0.010-0.035 13.436 6.24c0.922-1.068 2.278-1.74 3.791-1.74 2.761 0 5 2.239 5 5s-2.239 5-5 5c-2.761 0-5-2.239-5-5 0-0.539 0.085-1.057 0.243-1.543l-0.010 0.035-13.436-6.24c-0.922 1.070-2.28 1.744-3.795 1.744-2.761 0-5-2.239-5-5s2.239-5 5-5c1.515 0 2.872 0.674 3.789 1.738l0.005 0.007 13.436-6.24c-0.146-0.448-0.23-0.964-0.23-1.499 0-0.002 0-0.003 0-0.005v0z"></path>
</symbol>
<symbol id="icon-sort-down" viewBox="0 0 32 32">
<path d="M6 4c0.552 0 1 0.448 1 1v0 20c0 0.552-0.448 1-1 1s-1-0.448-1-1v0-20c0-0.552 0.448-1 1-1v0z"></path>
<path d="M10.708 20.292c0.181 0.181 0.294 0.431 0.294 0.708s-0.112 0.527-0.294 0.708l-4 4c-0.181 0.181-0.431 0.294-0.708 0.294s-0.527-0.112-0.708-0.294l-4-4c-0.181-0.181-0.293-0.431-0.293-0.708 0-0.553 0.448-1.001 1.001-1.001 0.277 0 0.527 0.112 0.708 0.293l3.292 3.294 3.292-3.294c0.181-0.181 0.431-0.294 0.708-0.294s0.527 0.112 0.708 0.294l0 0zM14 19c0-0.552 0.448-1 1-1v0h6c0.552 0 1 0.448 1 1s-0.448 1-1 1v0h-6c-0.552 0-1-0.448-1-1v0zM14 13c0-0.552 0.448-1 1-1v0h10c0.552 0 1 0.448 1 1s-0.448 1-1 1v0h-10c-0.552 0-1-0.448-1-1v0zM14 7c0-0.552 0.448-1 1-1v0h14c0.552 0 1 0.448 1 1s-0.448 1-1 1v0h-14c-0.552 0-1-0.448-1-1v0zM14 25c0-0.552 0.448-1 1-1v0h2c0.552 0 1 0.448 1 1s-0.448 1-1 1v0h-2c-0.552 0-1-0.448-1-1v0z"></path>
</symbol>
<symbol id="icon-sort-up" viewBox="0 0 32 32">
<path d="M6 26c0.552 0 1-0.448 1-1v0-20c0-0.552-0.448-1-1-1s-1 0.448-1 1v0 20c0 0.552 0.448 1 1 1v0z"></path>
<path d="M10.708 9.708c0.181-0.181 0.294-0.431 0.294-0.708s-0.112-0.527-0.294-0.708l-4-4c-0.181-0.181-0.431-0.294-0.708-0.294s-0.527 0.112-0.708 0.294l-4 4c-0.181 0.181-0.293 0.431-0.293 0.708 0 0.553 0.448 1.001 1.001 1.001 0.277 0 0.527-0.112 0.708-0.293l3.292-3.294 3.292 3.294c0.181 0.181 0.431 0.294 0.708 0.294s0.527-0.112 0.708-0.294l0-0zM14 19c0-0.552 0.448-1 1-1v0h6c0.552 0 1 0.448 1 1s-0.448 1-1 1v0h-6c-0.552 0-1-0.448-1-1v0zM14 13c0-0.552 0.448-1 1-1v0h10c0.552 0 1 0.448 1 1s-0.448 1-1 1v0h-10c-0.552 0-1-0.448-1-1v0zM14 7c0-0.552 0.448-1 1-1v0h14c0.552 0 1 0.448 1 1s-0.448 1-1 1v0h-14c-0.552 0-1-0.448-1-1v0zM14 25c0-0.552 0.448-1 1-1v0h2c0.552 0 1 0.448 1 1s-0.448 1-1 1v0h-2c-0.552 0-1-0.448-1-1v0z"></path>
</symbol>
<symbol id="icon-star" viewBox="0 0 32 32">
<path d="M5.732 29.7c-0.156 0.888 0.72 1.582 1.492 1.186l8.78-4.512 8.778 4.512c0.772 0.396 1.648-0.298 1.492-1.184l-1.66-9.46 7.046-6.712c0.658-0.628 0.316-1.776-0.566-1.9l-9.796-1.392-4.368-8.654c-0.169-0.349-0.52-0.586-0.927-0.586s-0.758 0.237-0.924 0.58l-0.003 0.006-4.368 8.656-9.796 1.392c-0.882 0.124-1.224 1.272-0.566 1.9l7.046 6.712-1.66 9.46zM15.542 24.166l-7.372 3.788 1.388-7.914c0.011-0.060 0.018-0.128 0.018-0.199 0-0.318-0.132-0.606-0.343-0.811l-0-0-5.812-5.54 8.104-1.152c0.347-0.054 0.634-0.271 0.783-0.57l0.003-0.006 3.694-7.316 3.692 7.316c0.152 0.305 0.439 0.522 0.78 0.575l0.006 0.001 8.104 1.15-5.812 5.54c-0.212 0.205-0.344 0.493-0.344 0.811 0 0.071 0.007 0.141 0.019 0.208l-0.001-0.007 1.388 7.914-7.372-3.788c-0.134-0.070-0.293-0.112-0.461-0.112s-0.327 0.041-0.467 0.114l0.006-0.003z"></path>
</symbol>
<symbol id="icon-star-fill" viewBox="0 0 32 32">
<path d="M7.224 30.886c-0.772 0.396-1.648-0.298-1.492-1.184l1.66-9.46-7.046-6.712c-0.658-0.628-0.316-1.776 0.566-1.9l9.796-1.392 4.368-8.654c0.394-0.78 1.46-0.78 1.854 0l4.368 8.654 9.796 1.392c0.882 0.124 1.224 1.272 0.566 1.9l-7.046 6.712 1.66 9.46c0.156 0.886-0.72 1.58-1.492 1.184l-8.782-4.512-8.778 4.512z"></path>
</symbol>
<symbol id="icon-three-dots-vertical" viewBox="0 0 32 32">
<path d="M19 26c0 1.657-1.343 3-3 3s-3-1.343-3-3v0c0-1.657 1.343-3 3-3s3 1.343 3 3v0zM19 16c0 1.657-1.343 3-3 3s-3-1.343-3-3v0c0-1.657 1.343-3 3-3s3 1.343 3 3v0zM19 6c0 1.657-1.343 3-3 3s-3-1.343-3-3v0c0-1.657 1.343-3 3-3s3 1.343 3 3v0z"></path>
</symbol>
<symbol id="icon-trash" viewBox="0 0 32 32">
<path d="M11 11c0.552 0 1 0.448 1 1v0 12c0 0.552-0.448 1-1 1s-1-0.448-1-1v0-12c0-0.552 0.448-1 1-1v0zM16 11c0.552 0 1 0.448 1 1v0 12c0 0.552-0.448 1-1 1s-1-0.448-1-1v0-12c0-0.552 0.448-1 1-1v0zM22 12c0-0.552-0.448-1-1-1s-1 0.448-1 1v0 12c0 0.552 0.448 1 1 1s1-0.448 1-1v0-12z"></path>
<path d="M29 6c0 1.105-0.895 2-2 2v0h-1v18c0 2.209-1.791 4-4 4v0h-12c-2.209 0-4-1.791-4-4v0-18h-1c-1.105 0-2-0.895-2-2v0-2c0-1.105 0.895-2 2-2v0h7c0-1.105 0.895-2 2-2v0h4c1.105 0 2 0.895 2 2v0h7c1.105 0 2 0.895 2 2v0 2zM8.236 8l-0.236 0.118v17.882c0 1.105 0.895 2 2 2v0h12c1.105 0 2-0.895 2-2v0-17.882l-0.236-0.118h-15.528zM5 6h22v-2h-22v2z"></path>
</symbol>
<symbol id="icon-trash-fill" viewBox="0 0 32 32">
<path d="M5 2c-1.105 0-2 0.895-2 2v0 2c0 1.105 0.895 2 2 2v0h1v18c0 2.209 1.791 4 4 4v0h12c2.209 0 4-1.791 4-4v0-18h1c1.105 0 2-0.895 2-2v0-2c0-1.105-0.895-2-2-2v0h-7c0-1.105-0.895-2-2-2v0h-4c-1.105 0-2 0.895-2 2v0h-7zM11 10c0.552 0 1 0.448 1 1v0 14c0 0.552-0.448 1-1 1s-1-0.448-1-1v0-14c0-0.552 0.448-1 1-1v0zM16 10c0.552 0 1 0.448 1 1v0 14c0 0.552-0.448 1-1 1s-1-0.448-1-1v0-14c0-0.552 0.448-1 1-1v0zM22 11v14c0 0.552-0.448 1-1 1s-1-0.448-1-1v-14c0-0.552 0.448-1 1-1s1 0.448 1 1z"></path>
</symbol>
<symbol id="icon-upload" viewBox="0 0 32 32">
<path d="M1 19.8c0.552 0 1 0.448 1 1v0 5c0 1.105 0.895 2 2 2v0h24c1.105 0 2-0.895 2-2v0-5c0-0.552 0.448-1 1-1s1 0.448 1 1v0 5c0 2.209-1.791 4-4 4v0h-24c-2.209 0-4-1.791-4-4v0-5c0-0.552 0.448-1 1-1v0z"></path>
<path d="M15.292 2.292c0.181-0.181 0.431-0.294 0.708-0.294s0.527 0.112 0.708 0.294l6 6c0.181 0.181 0.293 0.431 0.293 0.708 0 0.553-0.448 1.001-1.001 1.001-0.276 0-0.527-0.112-0.708-0.293v0l-4.292-4.294v17.586c0 0.552-0.448 1-1 1s-1-0.448-1-1v0-17.586l-4.292 4.294c-0.181 0.181-0.431 0.293-0.708 0.293-0.553 0-1.001-0.448-1.001-1.001 0-0.277 0.112-0.527 0.293-0.708v0l6-6z"></path>
</symbol>
<symbol id="icon-view-stacked" viewBox="0 0 32 32">
<path d="M6 0h20c2.209 0 4 1.791 4 4v0 6c0 2.209-1.791 4-4 4v0h-20c-2.209 0-4-1.791-4-4v0-6c0-2.209 1.791-4 4-4v0zM6 2c-1.105 0-2 0.895-2 2v0 6c0 1.105 0.895 2 2 2v0h20c1.105 0 2-0.895 2-2v0-6c0-1.105-0.895-2-2-2v0h-20zM6 18h20c2.209 0 4 1.791 4 4v0 6c0 2.209-1.791 4-4 4v0h-20c-2.209 0-4-1.791-4-4v0-6c0-2.209 1.791-4 4-4v0zM6 20c-1.105 0-2 0.895-2 2v0 6c0 1.105 0.895 2 2 2v0h20c1.105 0 2-0.895 2-2v0-6c0-1.105-0.895-2-2-2v0h-20z"></path>
</symbol>
<symbol id="icon-zoom-in" viewBox="0 0 32 32">
<path d="M13 24c6.075 0 11-4.925 11-11s-4.925-11-11-11v0c-6.075 0-11 4.925-11 11s4.925 11 11 11v0zM26 13c0 7.18-5.82 13-13 13s-13-5.82-13-13v0c0-7.18 5.82-13 13-13s13 5.82 13 13v0z"></path>
<path d="M20.688 23.484c0.060 0.080 0.124 0.156 0.196 0.23l7.7 7.7c0.362 0.362 0.862 0.586 1.415 0.586 1.105 0 2-0.896 2-2 0-0.552-0.224-1.052-0.585-1.414l-7.7-7.7c-0.070-0.071-0.145-0.136-0.225-0.196l-0.005-0.004c-0.796 1.078-1.719 2.002-2.761 2.775l-0.035 0.025z"></path>
<path d="M13 6c0.552 0 1 0.448 1 1v0 5h5c0.552 0 1 0.448 1 1s-0.448 1-1 1v0h-5v5c0 0.552-0.448 1-1 1s-1-0.448-1-1v0-5h-5c-0.552 0-1-0.448-1-1s0.448-1 1-1v0h5v-5c0-0.552 0.448-1 1-1v0z"></path>
</symbol>
<symbol id="icon-zoom-out" viewBox="0 0 32 32">
<path d="M13 24c6.075 0 11-4.925 11-11s-4.925-11-11-11v0c-6.075 0-11 4.925-11 11s4.925 11 11 11v0zM26 13c0 7.18-5.82 13-13 13s-13-5.82-13-13v0c0-7.18 5.82-13 13-13s13 5.82 13 13v0z"></path>
<path d="M20.688 23.484c0.060 0.080 0.124 0.156 0.196 0.23l7.7 7.7c0.362 0.362 0.862 0.586 1.415 0.586 1.105 0 2-0.896 2-2 0-0.552-0.224-1.052-0.585-1.414l-7.7-7.7c-0.070-0.071-0.145-0.136-0.225-0.196l-0.005-0.004c-0.796 1.078-1.719 2.002-2.761 2.775l-0.035 0.025z"></path>
<path d="M6 13c0-0.552 0.448-1 1-1v0h12c0.552 0 1 0.448 1 1s-0.448 1-1 1v0h-12c-0.552 0-1-0.448-1-1v0z"></path>
</symbol>
</defs>
</svg>
